<?xml version="1.0" encoding="UTF-8"?>
<svg width="61px" height="17px" viewBox="0 0 610 175" version="1.1" xmlns="http://www.w3.org/2000/svg" xmlns:xlink="http://www.w3.org/1999/xlink">
    <!-- Generator: Sketch 44.1 (41455) - http://www.bohemiancoding.com/sketch -->
    <title>cachemoment_logo_color</title>
    <desc>Created with Sketch.</desc>
    <defs>
        <polygon id="path-1" points="201.54618 120.269726 240.715899 120.269726 240.715899 56.816457 201.54618 56.816457"></polygon>
    </defs>
    <g id="VI" stroke="none" stroke-width="1" fill="none" fill-rule="evenodd">
        <g id="1-copy-5" transform="translate(-297.000000, -253.000000)">
            <g id="cachemoment_logo_-color" transform="translate(234.000000, 187.000000)">
                <g id="Group" transform="translate(62.764045, 66.021505)">
                    <path d="M15.7504719,144.697683 C3.528,144.722441 0.885303371,155.596183 0.885303371,159.552522 C0.885303371,163.495656 3.21252809,174.40736 15.7504719,174.40736 L22.3588652,174.40736 L22.3588652,169.455747 L15.7504719,169.455747 C9.35019101,169.061269 6.09141573,165.723882 5.84201124,159.552522 C6.09141573,153.367957 9.35019101,150.028919 15.7504719,149.647645 L22.3588652,149.647645 L22.3588652,144.697683 L15.7504719,144.697683 Z" id="Clip-4" fill="#313F4D"></path>
                    <path d="M68.6057258,151.671534 L78.1095236,174.40769 L83.4708944,174.40769 L70.8371528,144.698013 L68.6057258,151.671534 Z M57.0439281,174.40769 L62.7818831,174.40769 L68.6057258,162.881986 L65.8391528,156.251776 L57.0439281,174.40769 Z" id="Fill-6" fill="#313F4D"></path>
                    <path d="M133.020135,144.697683 C120.797663,144.722441 118.154966,155.596183 118.154966,159.552522 C118.154966,163.495656 120.482191,174.40736 133.020135,174.40736 L139.628528,174.40736 L139.628528,169.455747 L133.020135,169.455747 C126.619854,169.061269 123.361079,165.723882 123.111674,159.552522 C123.361079,153.367957 126.619854,150.028919 133.020135,149.647645 L139.628528,149.647645 L139.628528,144.697683 L133.020135,144.697683 Z" id="Clip-8" fill="#313F4D"></path>
                    <polygon id="Fill-10" fill="#313F4D" points="175.965607 157.901984 180.922315 157.901984 180.922315 144.697683 175.965607 144.697683"></polygon>
                    <polygon id="Fill-11" fill="#313F4D" points="194.133155 144.697188 194.133155 156.250951 175.964616 156.250951 175.964616 174.406865 180.921324 174.406865 180.921324 161.202564 194.133155 161.202564 194.133155 174.406865 199.089863 174.406865 199.089863 144.697188"></polygon>
                    <polygon id="Fill-12" fill="#313F4D" points="235.42562 147.997933 235.42562 174.406535 256.899182 174.406535 256.899182 169.454922 240.382328 169.454922 240.382328 161.202234 253.59416 161.202234 253.59416 156.250621 240.382328 156.250621 240.382328 147.997933"></polygon>
                    <polygon id="Fill-13" fill="#313F4D" points="235.426281 149.647645 256.899843 149.647645 256.899843 144.696032 235.426281 144.696032"></polygon>
                    <polygon id="Fill-14" fill="#313F4D" points="313.054503 161.202399 313.054503 174.4067 318.011211 174.4067 318.011211 156.716238"></polygon>
                    <polygon id="Fill-15" fill="#313F4D" points="428.672811 161.202399 428.672811 174.4067 433.629519 174.4067 433.629519 156.990227"></polygon>
                    <polygon id="Fill-16" fill="#313F4D" points="304.796902 155.977952 291.583419 144.696527 291.583419 174.406205 296.538475 174.406205 296.538475 156.251941 304.796902 162.852441 318.010385 151.564415 318.010385 144.696527"></polygon>
                    <polygon id="Fill-17" fill="#313F4D" points="420.41521 155.639262 407.201727 144.697848 407.201727 174.407525 412.156783 174.407525 412.156783 156.251611 420.41521 162.852111 433.628693 151.564084 433.628693 144.697848"></polygon>
                    <path d="M347.740888,159.552522 C347.740888,151.347699 354.395528,144.697683 362.606056,144.697683 C370.816584,144.697683 377.471225,151.347699 377.471225,159.552522 C377.471225,167.755694 370.816584,174.40736 362.606056,174.40736 C354.395528,174.40736 347.740888,167.755694 347.740888,159.552522 Z M352.695944,159.552522 C352.695944,165.020753 357.132371,169.455747 362.606056,169.455747 C368.07809,169.455747 372.514517,165.020753 372.514517,159.552522 C372.514517,154.08264 368.07809,149.647645 362.606056,149.647645 C357.132371,149.647645 352.695944,154.08264 352.695944,159.552522 Z" id="Clip-19" fill="#313F4D"></path>
                    <polygon id="Fill-21" fill="#313F4D" points="469.965276 149.648305 469.965276 174.40637 489.785501 174.40637 489.785501 169.456408 474.920333 169.456408 474.920333 161.202069 486.48213 161.202069 486.48213 156.250456 474.920333 156.250456 474.920333 149.648305"></polygon>
                    <polygon id="Fill-22" fill="#313F4D" points="469.965607 149.647645 489.785831 149.647645 489.785831 144.696032 469.965607 144.696032"></polygon>
                    <polygon id="Fill-23" fill="#313F4D" points="593.84036 174.40736 598.797067 174.40736 598.797067 147.998758 593.84036 147.998758"></polygon>
                    <polygon id="Fill-24" fill="#313F4D" points="583.931899 149.647645 608.705528 149.647645 608.705528 144.696032 583.931899 144.696032"></polygon>
                    <path d="M547.59416,144.697188 L547.59416,164.503639 L547.59416,174.406865 L552.550867,174.406865 L552.550867,144.697188 L547.59416,144.697188 Z M524.472216,174.406865 L529.427272,174.406865 L529.427272,144.697188 L524.472216,144.697188 L524.472216,174.406865 Z" id="Fill-25" fill="#313F4D"></path>
                    <polygon id="Fill-26" fill="#313F4D" points="532.729652 159.552522 537.68636 159.552522 537.68636 152.94872 532.729652 152.94872"></polygon>
                    <polygon id="Fill-27" fill="#313F4D" points="539.336393 166.153022 544.291449 166.153022 544.291449 159.550871 539.336393 159.550871"></polygon>
                    <g id="Group-3" transform="translate(1.000000, 0.000000)">
                        <g id="Group-2">
                            <polygon id="Fill-28" fill="#835EE8" points="50.6713258 63.6364785 89.8426966 63.6364785 89.8426966 0.184860215 50.6713258 0.184860215"></polygon>
                            <polygon id="Fill-29" fill="#835EE8" points="151.254011 63.6364785 190.425382 63.6364785 190.425382 0.184860215 151.254011 0.184860215"></polygon>
                            <polygon id="Fill-30" fill="#835EE8" points="0.379157303 120.269726 39.5505281 120.269726 39.5505281 56.816457 0.379157303 56.816457"></polygon>
                            <polygon id="Fill-31" fill="#835EE8" points="100.961843 120.269726 140.133213 120.269726 140.133213 56.816457 100.961843 56.816457"></polygon>
                            <mask id="mask-2" fill="white">
                                <use xlink:href="#path-1"></use>
                            </mask>
                            <use id="Mask" fill="#835EE8" xlink:href="#path-1"></use>
                        </g>
                    </g>
                    <polygon id="Fill-33" fill="#313F4D" points="298.1013 51.0507989 309.147772 40.4857075 309.147772 51.0524495 317.708457 51.0524495 317.708457 40.4857075 327.336131 49.6329871 333.161626 43.4550247 324.009637 34.9035892 332.923783 34.9035892 332.923783 26.3505032 317.708457 26.3505032 317.708457 21.4797667 309.147772 21.4797667 309.147772 26.3505032 294.350322 26.3505032 294.350322 34.9035892 302.729322 34.9035892 292.275806 44.8744871"></polygon>
                    <polygon id="Fill-34" fill="#313F4D" points="360.978981 51.0524495 360.978981 40.4857075 372.030408 51.0557505 377.855902 44.8794387 367.276857 34.9035892 375.895352 34.9035892 375.895352 26.3505032 360.978981 26.3505032 360.978981 21.4797667 352.418296 21.4797667 352.418296 26.3505032 337.323543 26.3505032 337.323543 34.9035892 346.001498 34.9035892 337.0857 43.4550247 342.78897 49.6329871 352.418296 40.4857075 352.418296 51.0524495"></polygon>
                    <polygon id="Fill-35" fill="#313F4D" points="377.858049 9.83819462 337.026735 9.83819462 337.026735 4.94104946 328.467701 4.94104946 328.467701 9.83819462 281.393016 9.83819462 281.393016 94.1195978 272.33187 103.228915 277.858409 108.692195 289.952049 96.4369527 289.952049 18.3912806 377.858049 18.3912806"></polygon>
                    <polygon id="Fill-37" fill="#313F4D" points="517.588652 18.3391237 597.812663 18.3391237 597.812663 9.78603763 517.588652 9.78603763"></polygon>
                    <polygon id="Fill-38" fill="#313F4D" points="507.715372 45.4810597 507.715372 54.0357962 538.747237 54.0357962 515.760731 97.2353177 515.760731 108.690049 591.416181 108.690049 586.817889 100.136963 524.319765 100.136963 524.319765 99.3050919 548.376563 54.0357962 607.68363 54.0357962 607.68363 45.4810597"></polygon>
                    <polygon id="Fill-39" fill="#313F4D" points="575.90702 72.1161156 595.362222 108.690379 605.060919 108.690379 585.577638 72.0781532"></polygon>
                    <polygon id="Fill-40" fill="#313F4D" points="433.951598 9.78570753 433.951598 18.3387935 483.175126 18.3387935 483.175126 100.136138 471.287946 100.136138 471.287946 108.690874 491.73416 108.690874 491.73416 9.78570753"></polygon>
                    <polygon id="Fill-41" fill="#313F4D" points="396.397888 108.692855 404.956921 108.692855 404.956921 29.996871 396.397888 29.996871"></polygon>
                    <polygon id="Fill-42" fill="#313F4D" points="405.900034 19.8196559 414.442551 19.8196559 414.442551 6.2538871 405.900034 6.2538871"></polygon>
                    <polygon id="Fill-43" fill="#313F4D" points="416.867225 31.928 425.409742 31.928 425.409742 18.3622312 416.867225 18.3622312"></polygon>
                    <path d="M370.443303,108.691204 L361.114584,91.1806505 L358.468584,93.809957 L359.956753,96.6224731 L343.581944,96.6224731 L352.897449,87.2903333 L340.058899,87.2903333 L340.058899,100.119962 L361.809944,100.119962 L366.360337,108.673048 L331.499865,108.673048 L331.499865,91.4480376 L301.305404,108.692855 L297.26373,101.209317 L321.03809,87.2903333 L297.931011,87.2903333 L297.931011,55.3359247 L323.297596,55.3359247 L323.297596,51.0527796 L331.856629,51.0527796 L331.856629,55.3359247 L373.639315,55.3359247 L373.639315,87.2903333 L368.85273,87.2903333 L380.254315,108.691204 L370.443303,108.691204 Z M306.490045,78.7372473 L331.499865,78.7372473 L331.499865,75.5302527 L306.490045,75.5302527 L306.490045,78.7372473 Z M306.490045,66.9771667 L331.499865,66.9771667 L331.499865,63.8873602 L306.490045,63.8873602 L306.490045,66.9771667 Z M340.058899,66.9788172 L365.080281,66.9788172 L365.080281,63.8890108 L340.058899,63.8890108 L340.058899,66.9788172 Z M340.058899,78.7372473 L365.080281,78.7372473 L365.080281,75.5302527 L340.058899,75.5302527 L340.058899,78.7372473 Z" id="Combined-Shape" fill="#313F4D"></path>
                </g>
                <polygon id="Fill-1" fill="#FFFFFF" opacity="0" points="0.474033708 305.682871 734.957056 305.682871 734.957056 0.950709677 0.474033708 0.950709677"></polygon>
            </g>
        </g>
    </g>
</svg>