<?xml version="1.0" encoding="utf-8"?><svg version="1.1" id="Lager_1" xmlns="http://www.w3.org/2000/svg" xmlns:xlink="http://www.w3.org/1999/xlink" x="0px" y="0px"  viewBox="0 0 273.6 43" style="enable-background:new 0 0 273.6 43;" xml:space="preserve"><g> <g>  <g>   <g>    <polygon style="fill:#030303;" points="22.1,42.4 11.2,32.4 21.4,0.7 33.5,0.7 39.1,8.3 39.7,6.1 43,6.1 44.4,0.7 56.8,0.6      57.4,1.7 57.6,0.6 70.1,0.6 70.6,1.7 70.8,0.6 83.4,0.6 85.6,6.2 85.9,6.2 86.3,7.2 87.3,0.6 100.1,0.6 100.4,1.6 100.5,0.6      126.8,0.6 128.1,12.5 127.8,19.6 127.3,19.6 127.7,23.1 127.4,30.7 126.8,30.7 127.3,34.5 127,42.4 100.8,42.4 100.5,41.4      100.4,42.4 87.7,42.4 84.7,36.2 83.8,42.4 71.3,42.4 70.7,41.4 70.5,42.4 58.2,42.4 57.5,41.5 57.3,42.4 45,42.4 39.8,36.4      36.6,36.4 35.8,35.6 34,42.4     "/>   </g>   <g>    <path style="fill:#030303;" d="M166.8,41.4l-0.2,1h-13.1l-1-29.9l1.1-12H180l0.1,1.1l0.3-1.1h26.2l0.2,1.1l0.5-1.1h25.9l0.3,1     l0.6-1h25.7l2.4,7.6l-5.1,6.1v0.1c0.4,1.2,0.7,2.4,1.1,3.6c0.3,0.9,1.8,5.7,1.8,5.7l0.8,2.7c0.2,0.8,0.5,1.6,0.7,2.4l0.7,2.4     l0.3,1.1l-10.2,10.1h-12.2L235.4,23l-5.4,7.5h-3.8l0.3,1.5l-7.2,10.2h-12.5l-0.2-1l-0.6,1h-12.6l-0.1-1l-0.5,1h-12.7l-0.1-1.1     l-0.4,1.1h-12.9L166.8,41.4z"/>   </g>   <g>    <polygon style="fill:#030303;" points="125.8,31.9 126.9,0.6 153.5,0.5 153.7,7.9 152.8,19.6 140.5,19.6 140.4,23.6 154.2,23.6      154.4,31.9 153.4,42.4 127.1,42.4     "/>   </g>  </g> </g> <g>     <linearGradient id="SVGID_1_" gradientUnits="userSpaceOnUse" x1="34.45" y1="12.4" x2="34.45" y2="41.5" gradientTransform="matrix(1 0 0 -1 0 44)">   <stop  offset="0" style="stop-color:#D9CDCA"/>   <stop  offset="1" style="stop-color:#A89F9C"/>  </linearGradient>  <polygon style="fill:url(#SVGID_1_);" points="33.9,7.9 32.3,13.7 39.6,13.7 41.1,8 44.4,8 45.8,2.5 55.4,2.5 48.7,31.6    38.3,31.6 41.4,19.3 37.7,19.3 36.1,25.3 29.4,25.3 31.1,19.2 27.3,19.3 23.6,31.6 13.5,31.6 22.8,2.6 32.2,2.6 30.7,7.8   "/>     <linearGradient id="SVGID_2_" gradientUnits="userSpaceOnUse" x1="60.65" y1="12.3361" x2="60.65" y2="41.4361" gradientTransform="matrix(1 0 0 -1 0 44)">   <stop  offset="0" style="stop-color:#D9CDCA"/>   <stop  offset="1" style="stop-color:#A89F9C"/>  </linearGradient>  <polygon style="fill:url(#SVGID_2_);" points="68.7,2.6 62.9,31.7 52.6,31.7 59.1,2.6   "/>     <linearGradient id="SVGID_3_" gradientUnits="userSpaceOnUse" x1="82.7" y1="12.4" x2="82.7" y2="41.5" gradientTransform="matrix(1 0 0 -1 0 44)">   <stop  offset="0" style="stop-color:#D9CDCA"/>   <stop  offset="1" style="stop-color:#A89F9C"/>  </linearGradient>  <polygon style="fill:url(#SVGID_3_);" points="82.6,22.2 83.5,16.2 79.8,16.2 77.3,31.6 66.9,31.6 72.4,2.5 82,2.5 81.1,7.9    84.4,8 83.6,13.6 87.3,13.6 88.9,2.5 98.5,2.5 95.1,31.6 84.8,31.6 86.1,22.3   "/>     <linearGradient id="SVGID_4_" gradientUnits="userSpaceOnUse" x1="112.1" y1="12.4" x2="112.1" y2="41.5" gradientTransform="matrix(1 0 0 -1 0 44)">   <stop  offset="0" style="stop-color:#D9CDCA"/>   <stop  offset="1" style="stop-color:#A89F9C"/>  </linearGradient>  <polygon style="fill:url(#SVGID_4_);" points="124.1,25.6 123.8,31.6 99.1,31.6 102.2,2.5 125.1,2.5 124.8,7.6 111.4,7.6    110.9,13.6 124.6,13.6 124.3,19.2 110.4,19.2 110,25.5   "/>     <linearGradient id="SVGID_5_" gradientUnits="userSpaceOnUse" x1="247.7" y1="12.5" x2="247.7" y2="41.7" gradientTransform="matrix(1 0 0 -1 0 44)">   <stop  offset="0" style="stop-color:#D9CDCA"/>   <stop  offset="1" style="stop-color:#A89F9C"/>  </linearGradient>  <path style="fill:url(#SVGID_5_);" d="M258.4,2.3l1.6,5.2h-6.7v0.2c0.3,1.1,0.6,2.3,0.9,3.4c0.3,1.2,0.7,2.4,1,3.6   c0.4,1.2,0.7,2.4,1.1,3.7c0.4,1.2,0.8,2.5,1.1,3.7c0.2,0.8,0.5,1.5,0.7,2.3s0.5,1.6,0.7,2.3c0.2,0.8,0.5,1.6,0.7,2.4   s0.5,1.6,0.7,2.4h-10.4l-6.6-24h-6.7l-1.3-5.2L258.4,2.3z"/>     <linearGradient id="SVGID_6_" gradientUnits="userSpaceOnUse" x1="222.25" y1="12.4626" x2="222.25" y2="41.6461" gradientTransform="matrix(1 0 0 -1 0 44)">   <stop  offset="0" style="stop-color:#D9CDCA"/>   <stop  offset="1" style="stop-color:#A89F9C"/>  </linearGradient>  <polygon style="fill:url(#SVGID_6_);" points="234.4,13.4 235.8,19.2 221.8,19.2 224.4,31.5 214,31.5 208.7,2.4 231.7,2.4    232.9,7.5 219.4,7.5 220.6,13.4   "/>     <linearGradient id="SVGID_7_" gradientUnits="userSpaceOnUse" x1="196" y1="12.4529" x2="196" y2="41.6195" gradientTransform="matrix(1 0 0 -1 0 44)">   <stop  offset="0" style="stop-color:#D9CDCA"/>   <stop  offset="1" style="stop-color:#A89F9C"/>  </linearGradient>  <path style="fill:url(#SVGID_7_);" d="M194.3,22.1l1.3,9.4h-10.4L182,2.4h23l5,29.2h-10.4l-1.4-9.4L194.3,22.1z M201.1,10.7   L200.5,7H196l0.4,3.4h-3.6L192.3,7h-4.4l0.5,3.7h4l0.2,1.4h-2l0.7,5.7h2.4l-0.2-1.9h3.6l0.3,2h2.5l-0.9-5.7h-2l-0.2-1.4   L201.1,10.7"/>     <linearGradient id="SVGID_8_" gradientUnits="userSpaceOnUse" x1="168.25" y1="12.4422" x2="168.25" y2="41.5921" gradientTransform="matrix(1 0 0 -1 0 44)">   <stop  offset="0" style="stop-color:#D9CDCA"/>   <stop  offset="1" style="stop-color:#A89F9C"/>  </linearGradient>  <path style="fill:url(#SVGID_8_);" d="M176.3,16.5h3.4l1.5,15.1h-10.4l-0.9-12.3l-3.9-0.1l0.8,12.4h-10.4l-1.1-29.1h23l1.1,10.8   H176L176.3,16.5z M169.5,13.6l-0.4-6h-3.7l0.4,6H169.5"/>     <linearGradient id="SVGID_9_" gradientUnits="userSpaceOnUse" x1="140.15" y1="12.4334" x2="140.15" y2="41.5665" gradientTransform="matrix(1 0 0 -1 0 44)">   <stop  offset="0" style="stop-color:#D9CDCA"/>   <stop  offset="1" style="stop-color:#A89F9C"/>  </linearGradient>  <polygon style="fill:url(#SVGID_9_);" points="138.5,7.6 151.8,7.6 151.7,2.4 128.7,2.5 127.8,31.6 152.5,31.6 152.3,25.6    138.2,25.6   "/> </g> <g>  <path style="fill:#29282A;" d="M15,31.6c-0.8,0-1,0.5-0.4,1l7.2,6.9c0.6,0.6,1.8,1,2.6,1h6.2c0.8,0,1-0.5,0.5-1.1l-6.3-6.7   c-0.6-0.6-1.7-1.1-2.5-1.1H15z"/> </g> <g>  <path style="fill:#29282A;" d="M39.8,31.6c-0.8,0-1.1,0.5-0.5,1.1l5.6,6.6c0.5,0.6,1.6,1.1,2.5,1.1h6.5c0.8,0,1.1-0.5,0.6-1.2   l-4.9-6.5c-0.5-0.7-1.6-1.2-2.4-1.2L39.8,31.6z"/> </g> <g>  <path style="fill:#29282A;" d="M30.9,25.3c-0.8,0-1.1,0.5-0.5,1.1l6.2,7c0.5,0.6,1.5,1.1,2.1,1.1s0.7-0.6,0.2-1.3l-0.3-0.4   c-0.5-0.7-0.7-1.9-0.5-2.7v-0.2c0.2-0.8,0-2-0.5-2.6L37,26.4c-0.5-0.6-1.6-1.2-2.4-1.2L30.9,25.3z"/> </g> <g>  <path style="fill:#29282A;" d="M54.1,31.7c-0.8,0-1.1,0.5-0.6,1.2l4.7,6.5c0.5,0.7,1.6,1.2,2.4,1.2H67c0.8,0,1.1-0.6,0.7-1.3   l-4-6.3c-0.4-0.7-1.5-1.3-2.3-1.3L54.1,31.7z"/> </g> <g>  <path style="fill:#29282A;" d="M68.4,31.6c-0.8,0-1.1,0.6-0.7,1.3l3.8,6.3c0.4,0.7,1.5,1.3,2.3,1.3h6.3c0.8,0,1.2-0.6,0.8-1.3   l-3-6.2c-0.4-0.7-1.3-1.3-2.2-1.3L68.4,31.6z"/> </g> <g>  <path style="fill:#29282A;" d="M86.3,31.6c-0.8,0-1.2,0.6-0.9,1.4l2.9,6.2c0.3,0.7,1.3,1.4,2.1,1.4h6.5c0.8,0,1.3-0.6,1-1.4   L95.6,33c-0.3-0.8-1.2-1.4-2-1.4H86.3z"/> </g> <g>  <path style="fill:#29282A;" d="M100.6,31.6c-0.8,0-1.3,0.6-1,1.4l2.1,5.9c0.3,0.8,1.2,1.4,2,1.4h19.8c0.8,0,1.4-0.7,1.3-1.5   L124,33c-0.1-0.8-0.9-1.5-1.7-1.5L100.6,31.6z"/> </g> <g>  <path style="fill:#29282A;" d="M129.3,31.6c-0.8,0-1.4,0.7-1.3,1.5l0.6,6c0.1,0.8,0.8,1.5,1.7,1.5H150c0.8,0,1.6-0.7,1.7-1.5   l0.7-6c0.1-0.8-0.5-1.5-1.3-1.5L129.3,31.6z"/> </g> <g>  <path style="fill:#29282A;" d="M158,31.6c-0.8,0-1.6,0.7-1.7,1.5l-0.7,5.9c-0.1,0.8,0.5,1.5,1.3,1.5h6.4c0.8,0,1.7-0.7,1.8-1.5   l1.4-6c0.2-0.8-0.3-1.5-1.1-1.5L158,31.6z"/> </g> <g>  <path style="fill:#29282A;" d="M172.3,31.6c-0.8,0-1.7,0.7-1.8,1.5l-1.4,5.9c-0.2,0.8,0.3,1.5,1.2,1.5h6.4c0.8,0,1.7-0.6,2-1.4   l2.1-5.9c0.3-0.8-0.2-1.4-1-1.4L172.3,31.6z"/> </g> <g>  <path style="fill:#29282A;" d="M186.7,31.5c-0.8,0-1.7,0.6-2,1.4l-2.1,6.1c-0.3,0.8,0.2,1.4,1,1.4h6.4c0.8,0,1.8-0.6,2.1-1.4   l2.9-6.2c0.3-0.7,0-1.4-0.9-1.4L186.7,31.5z"/> </g> <g>  <path style="fill:#29282A;" d="M201.1,31.5c-0.8,0-1.8,0.6-2.2,1.3l-3,6.2c-0.4,0.7,0,1.3,0.8,1.3h6.6c0.8,0,1.8-0.6,2.2-1.3   l3.6-6.3c0.4-0.7,0.1-1.3-0.7-1.3L201.1,31.5z"/> </g> <g>  <path style="fill:#29282A;" d="M215.5,31.5c-0.8,0-1.8,0.6-2.3,1.3l-3.9,6.3c-0.4,0.7-0.1,1.3,0.7,1.3h6.5c0.8,0,1.9-0.5,2.4-1.2   l4.6-6.5c0.5-0.7,0.2-1.2-0.6-1.2L215.5,31.5z"/> </g> <g>  <path style="fill:#29282A;" d="M251.4,31.5c-0.8,0-1.9,0.5-2.5,1.1l-5.8,6.6c-0.5,0.6-0.3,1.1,0.5,1.1h6.2c0.8,0,2-0.5,2.6-1   l6.9-6.7c0.6-0.6,0.4-1-0.4-1L251.4,31.5z"/> </g> <g style="opacity:0.44;">  <g>   <g>    <path style="fill:#030303;" d="M21.1,7.4c-0.1,0.2,0.5,0.3,1.4,0.3h6.8c0.8,0,1.5-0.2,1.5-0.4c0-0.2-0.7-0.4-1.5-0.4h-6.6     C21.9,7,21.2,7.2,21.1,7.4z"/>   </g>   <g>    <path style="fill:#030303;" d="M20.5,22.3c0.3-0.8-0.2-1.4-1-1.4H18c-0.8,0-1.5,0.1-1.5,0.3c0,0.2,0.7,0.3,1.5,0.3h0.6     c0.8,0,1.3,0.6,1,1.4l-1.5,4.5c-0.3,0.8,0.2,1.4,1,1.4h5c0.8,0,1.5-0.1,1.5-0.3s-0.7-0.3-1.5-0.3h-4.2c-0.8,0-1.3-0.6-1-1.4     v-0.1c0.3-0.8,1.1-1.4,2-1.4h3.8c0.8,0,1.5-0.1,1.5-0.3s-0.7-0.3-1.5-0.3h-3.6c-0.8,0-1.3-0.6-1-1.4L20.5,22.3z"/>   </g>   <g>    <path style="fill:#030303;" d="M48.9,8.8C49,8,48.5,7.3,47.6,7.3h-1.8c-0.8,0-1.6,0.1-1.6,0.3c-0.1,0.2,0.6,0.3,1.4,0.3h1.3     c0.8,0,1.4,0.7,1.3,1.5L48,11.3c-0.1,0.8-0.9,1.5-1.7,1.5H40c-0.8,0-1.5,0.1-1.5,0.3s0.7,0.3,1.5,0.3h6.2c0.8,0,1.6,0,1.7,0     s0.9,0,1.7,0h3c0.8,0,1.5-0.1,1.5-0.3s-0.7-0.3-1.5-0.3h-2.7c-0.8,0-1.4-0.7-1.3-1.5L48.9,8.8z"/>   </g>   <g>    <path style="fill:#030303;" d="M57.9,28.2c0.1-0.8,0.1-1.2-0.2-0.8c-0.2,0.4-0.6,1.4-0.7,2.2l-0.2,0.8c-0.2,0.8,0.1,2,0.6,2.7     l0.2,0.3c0.5,0.7,1.2,1.5,1.6,1.8s0.4,0-0.1-0.7l-1-1.5c-0.5-0.7-0.7-1.9-0.6-2.7L57.9,28.2z"/>   </g>   <g>    <path style="fill:#030303;" d="M68.1,8.4c0-0.2-0.7-0.3-1.5-0.3h-2.4c-0.8,0-1.2,0.1-0.8,0.3c0.4,0.1,1.4,0.3,2.2,0.3h1     C67.4,8.7,68.1,8.6,68.1,8.4z"/>   </g>   <g>    <path style="fill:#030303;" d="M72,29.7c0.2-0.8,0.1-1.1-0.1-0.7c-0.3,0.4-0.6,1.1-0.7,1.7c-0.1,0.5,0,1.5,0.2,2.1     s0.7,1.4,0.9,1.8c0.3,0.3,0.3,0,0-0.8L72.1,33c-0.3-0.8-0.3-2.1-0.1-2.9V29.7z"/>   </g>   <g>    <path style="fill:#030303;" d="M69.6,22.2c-0.8,0-1.5,0.1-1.5,0.2s0.7,0.3,1.5,0.4l7.3,0.4c0.8,0,1.7,0.4,1.9,0.7     c0.2,0.4,0.6,0.6,0.7,0.5s0-0.5-0.3-1c-0.3-0.4-1.2-0.8-2-0.9L69.6,22.2z"/>   </g>   <g>    <path style="fill:#030303;" d="M77.5,7.4c0.3,0.2,1.2,0.4,2,0.4h0.3c0.8,0,1.5-0.1,1.5-0.3s-0.7-0.3-1.5-0.4h-1.4     C77.6,7.1,77.2,7.2,77.5,7.4z"/>   </g>   <g>    <path style="fill:#030303;" d="M86.7,22.4c-0.8,0-1.5,0.2-1.5,0.4c0,0.2,0.7,0.3,1.5,0.3l4.1-0.2c0.8,0,1.4,0.6,1.3,1.4     l-0.9,5.8c-0.1,0.8,0,2.1,0.2,2.9l0.1,0.4c0.2,0.8,0.7,1.8,1,2.2s0.4,0.2,0.1-0.6L92,33c-0.2-0.8-0.3-2.1-0.2-2.9l1-6.4     c0.1-0.8-0.4-1.5-1.3-1.4L86.7,22.4z"/>   </g>   <g>    <path style="fill:#030303;" d="M88.1,7.3c0,0.2,0.6,0.4,1.4,0.6l7.2,0.8c0.8,0.1,1.5,0,1.5-0.1c0-0.2-0.7-0.4-1.5-0.5l-7.1-0.8     C88.8,7.1,88.1,7.1,88.1,7.3z"/>   </g>   <g>    <path style="fill:#030303;" d="M104.4,26.5c0-0.8-0.6-1.5-1.4-1.5h-2.4c-0.8,0-1.5,0.1-1.5,0.3c0,0.2,0.7,0.3,1.5,0.3h1.7     c0.8,0,1.5,0.7,1.4,1.5l-0.1,2.9c0,0.8,0.1,2.1,0.3,2.9l0.4,1.7c0.2,0.8,0.6,1.8,0.8,2.2s0.3,0.1,0.1-0.7l-0.7-3.3     c-0.2-0.8-0.3-2.1-0.3-3L104.4,26.5z"/>   </g>   <g>    <path style="fill:#030303;" d="M100.6,11c0,0.2,0.7,0.3,1.5,0.3h2.3c0.8,0,1.8-0.2,2.2-0.4c0.4-0.2,0-0.4-0.8-0.3l-3.7,0.1     C101.3,10.6,100.6,10.8,100.6,11z"/>   </g>   <g>    <path style="fill:#030303;" d="M118.1,14.4c0-0.8-0.2-1.5-0.4-1.5s-0.3,0.7-0.3,1.5v2.8c0,0.8,0.2,1.1,0.4,0.7     c0.2-0.4,0.4-1.5,0.3-2.3V14.4z"/>   </g>   <g>    <path style="fill:#030303;" d="M121.2,25.7c0,0.8-0.7,1.4-1.5,1.4h-1.8c-0.8,0-1.5,0.7-1.5,1.5v1.8c0,0.8,0.1,1.5,0.3,1.5     s0.3-0.7,0.3-1.5v-1.1c0-0.8,0.7-1.5,1.5-1.5h1.8c0.8,0,1.5-0.7,1.5-1.5v-0.4c0-0.8-0.1-1.5-0.3-1.5     C121.4,24.4,121.2,25,121.2,25.7z"/>   </g>   <g>    <path style="fill:#030303;" d="M147.2,27.2c-0.1,0.3-0.2,1.2-0.1,2l0.1,1c0.1,0.8,0.1,2.2,0,3l-0.9,6.2c-0.1,0.8,0,1.5,0.2,1.5     s0.5-0.7,0.6-1.5l0.8-6.1c0.1-0.8,0.1-2.2,0-3l-0.2-2C147.5,27.3,147.3,26.9,147.2,27.2z"/>   </g>   <g>    <path style="fill:#030303;" d="M128.1,37.2c0,0.2,0.7,0.3,1.5,0.3h0.1c0.8,0,1.5-0.1,1.5-0.3s-0.7-0.3-1.5-0.3h-0.1     C128.8,36.8,128.1,37,128.1,37.2z"/>   </g>   <g>    <path style="fill:#030303;" d="M130.5,11.8c0.3,0.2,1.3,0.5,2.1,0.6l5,0.8c0.8,0.3,1.4,0.5,1.5,0.3s-0.5-0.5-1.3-0.8l-6.4-1.1     C130.6,11.6,130.2,11.6,130.5,11.8z"/>   </g>   <g>    <path style="fill:#030303;" d="M130.4,17.7c0.3-0.2-0.1-0.3-0.9-0.3c-0.8,0-1.5,0.2-1.5,0.4c0,0.2,0.4,0.3,0.9,0.3     S130.1,17.9,130.4,17.7z"/>   </g>   <g>    <path style="fill:#030303;" d="M159.9,12.1c0,0.4,0.8,0.7,1.6,0.7h0.3c0.8,0,1.6,0,1.7,0.1c0.1,0,0.5,0.3,0.7,0.2s0-0.3-0.2-0.6     c-0.3-0.2-1.2-0.4-2-0.4s-1.5-0.7-1.6-1.5l-0.8-7.2c-0.1-0.8-0.3-1.5-0.5-1.5s-0.2,0.7-0.1,1.5l0.6,5.7c0.1,0.8-0.5,1.5-1.3,1.5     h-1.9c-0.8,0-1.5,0.1-1.5,0.3s0.7,0.3,1.5,0.3h1.9C159.2,11.4,159.9,11.7,159.9,12.1z"/>   </g>   <g>    <path style="fill:#030303;" d="M159,26.9c0.1,0.8-0.2,2-0.6,2.7c-0.4,0.7-0.7,1.9-0.5,2s0.5-0.5,0.7-1.3c0.2-0.7,0.9-1.4,1-1.4     s0.1-0.7,0.1-1.5l-0.2-3.1c-0.1-0.8,0.6-1.5,1.4-1.5h4.8c0.8,0,1.5-0.1,1.5-0.3c0-0.2-0.7-0.3-1.5-0.3h-5.5     c-0.8,0-1.5,0.7-1.4,1.5L159,26.9z"/>   </g>   <g>    <path style="fill:#030303;" d="M169.7,24.4c0,0.2,0.7,0.3,1.5,0.3h3.1c0.8,0,1.8-0.1,2.1-0.3c0.3-0.2-0.1-0.3-0.9-0.3h-4.3     C170.4,24.1,169.7,24.2,169.7,24.4z"/>   </g>   <g>    <path style="fill:#030303;" d="M172.6,15.4c0.2,0.2,1,0.3,1.8,0.3h0.7c0.8,0,1.5-0.1,1.5-0.3s-0.7-0.3-1.5-0.3h-1.4     C173,15.1,172.5,15.3,172.6,15.4z"/>   </g>   <g>    <path style="fill:#030303;" d="M155.2,37.7c0,0.2,0.6,0.4,1.5,0.4l7.3,0.5c0.8,0.1,1.5,0,1.5-0.2S164.9,38,164,38l-7.3-0.5     C155.9,37.4,155.3,37.5,155.2,37.7z"/>   </g>   <g>    <path style="fill:#030303;" d="M199.4,24.1c-0.8,0-1.5,0.2-1.5,0.3c0,0.2,0.7,0.3,1.5,0.3l8.9,1c0.8,0.1,1.5,0,1.6-0.2     s-0.6-0.4-1.4-0.4L199.4,24.1z"/>   </g>   <g>    <path style="fill:#030303;" d="M228,12.4c-0.2,0.1-0.3,0.8-0.2,1.6c0,0,1.2,3.4,0.8,4.1s-0.5,1.3-0.3,1.4s0.6-0.5,0.9-1.2     l-0.9-4.5C228.3,13,228.2,12.4,228,12.4z"/>   </g>   <g>    <path style="fill:#030303;" d="M223.1,4.5c-0.7,0-1.4-0.6-1.6-1.3S221,2,220.8,2.1s-0.1,0.7,0.1,1.5v0.1c0.2,0.8,1,1.4,1.7,1.4     s1.4,0.6,1.7,1.4l0.2,0.7c0.3,0.8,0.6,1.4,0.8,1.3s0.1-0.7-0.2-1.5l-0.4-1.1C224.6,5.2,223.8,4.5,223.1,4.5z"/>   </g>   <g>    <path style="fill:#030303;" d="M248.3,22.9c-0.8,0-1.5,0.1-1.5,0.3s0.7,0.3,1.5,0.3h8.4c0.8,0,1.5-0.1,1.5-0.3s-0.7-0.3-1.5-0.3     H248.3z"/>   </g>   <g>    <path style="fill:#030303;" d="M254.7,8c0.2,0,0.1-0.7-0.1-1.5l-0.8-2.9c-0.2-0.8-0.5-1.4-0.7-1.4s-0.1,0.7,0.1,1.5l0.8,2.9     C254.3,7.4,254.6,8,254.7,8z"/>   </g>  </g> </g> <g>  <path style="fill:#030303;" d="M44,7.8h2.7c0.8,0,0.8-0.1,0-0.3L46,7.4c-0.8-0.2-1.4,0-1.4,0.3C44.6,7.7,44.6,7.7,44,7.8z"/> </g> <g>  <path style="fill:#030303;" d="M28.1,35.9c-0.3-0.3-1.2-0.5-2-0.4l-1.4,0.2c-0.8,0.1-0.8,0.3,0,0.4l2.4,0.3   C27.9,36.4,28.4,36.3,28.1,35.9z"/> </g> <g>  <path style="fill:#030303;" d="M55,39.4c-0.2-0.3-1-0.5-1.9-0.5l-3.2,0.3c-0.8,0.1-0.8,0.2,0,0.3l4,0.4   C54.7,39.9,55.2,39.7,55,39.4z"/> </g> <g>  <path style="fill:#030303;" d="M87.5,38.1c-0.1-0.3,0.5-0.5,1.3-0.5h0.6c0.8,0,0.8,0.2,0.1,0.5l-0.4,0.1   C88.3,38.4,87.6,38.4,87.5,38.1z"/> </g> <g>  <path style="fill:#030303;" d="M124.7,36c-0.1-0.4-0.8-0.7-1.6-0.6l-2.2,0.3c-0.8,0.1-0.8,0.3,0,0.4l2.4,0.4   C124.2,36.7,124.8,36.5,124.7,36z"/> </g> <g>  <path style="fill:#030303;" d="M127.8,37.6c0-0.4,0.6-0.7,1.3-0.6c0.8,0.1,0.8,0.4,0.1,0.8S127.9,38,127.8,37.6z"/> </g> <g>  <path style="fill:#030303;" d="M104.3,30.3c-0.1-0.6-0.3-0.7-0.4-0.1s0,1.7,0.2,2.5l0.1,0.3c0.2,0.8,0.4,0.8,0.3,0   C104.5,32.1,104.4,30.9,104.3,30.3z"/> </g> <g>  <path style="fill:#030303;" d="M116.6,30.8c-0.1-0.3-0.2,0.2-0.2,1v0.1c0,0.8,0.1,1,0.3,0.4C116.8,31.7,116.8,31,116.6,30.8z"/> </g> <g>  <path style="fill:#030303;" d="M91.6,30.5c0-0.6-0.1-0.6-0.3,0c-0.1,0.6,0,1.8,0.3,2.6l0.1,0.3c0.3,0.8,0.4,0.8,0.2-0.1v-0.2   C91.8,32.3,91.6,31.1,91.6,30.5z"/> </g> <g>  <path style="fill:#030303;" d="M71.5,31c-0.1-0.3-0.3-0.2-0.4,0.1c-0.1,0.3,0,0.9,0.3,1.3s0.5,0.4,0.4-0.1   C71.7,31.8,71.6,31.2,71.5,31z"/> </g> <g>  <path style="fill:#030303;" d="M57.4,30.5c-0.1-0.6-0.4-0.6-0.6,0.2c-0.2,0.7,0.1,1.7,0.6,2.3c0.5,0.5,0.8,0.5,0.6-0.2   C57.9,32.2,57.6,31.2,57.4,30.5z"/> </g> <g>  <path style="fill:#030303;" d="M32.1,29.6c-0.2-0.3,0.3-0.4,1.1-0.3l1.9,0.2c0.8,0.1,0.8,0.2,0,0.3L34,29.9   C33.2,30,32.3,29.9,32.1,29.6z"/> </g> <g>  <path style="fill:#030303;" d="M147.3,30.2c0.1-0.8,0.4-0.8,0.5,0l0,0c0.2,0.8,0.1,2.1-0.1,2.9l-0.2,0.7c-0.2,0.8-0.4,0.8-0.4,0   v-0.6C147.1,32.3,147.2,31,147.3,30.2z"/> </g> <g>  <path style="fill:#030303;" d="M138.9,13.8c0,0.3-0.6,0.2-1.2-0.3l-0.2-0.1c-0.7-0.5-0.6-0.7,0.1-0.5   C138.3,13,138.9,13.4,138.9,13.8z"/> </g> <g>  <path style="fill:#030303;" d="M180.1,35.2c0.1-0.3-0.5-0.5-1.3-0.5h-0.7c-0.8,0-0.8,0.2-0.1,0.4l0.5,0.1   C179.3,35.6,180,35.5,180.1,35.2z"/> </g> <g>  <path style="fill:#030303;" d="M174.8,30.8c-0.2-0.4-0.3-0.2-0.3,0.6s0.2,1.1,0.4,0.8C175.1,31.8,175,31.2,174.8,30.8z"/> </g> <g>  <path style="fill:#030303;" d="M193.6,36.6c0.1-0.3-0.5-0.5-1.3-0.5l-2.3,0.2c-0.8,0.1-0.8,0.2,0,0.3l1.9,0.3   C192.7,37.1,193.5,36.9,193.6,36.6z"/> </g> <g>  <path style="fill:#030303;" d="M190.9,30.9c-0.1-0.3-0.3-0.4-0.4-0.1c-0.1,0.3-0.1,1,0.1,1.6c0.1,0.6,0.3,0.6,0.4,0.1   C191.1,32,191.1,31.3,190.9,30.9z"/> </g> <g>  <path style="fill:#030303;" d="M228.4,19.7c-0.3-0.1-0.2-0.7,0.1-1.4s0.5-0.6,0.5,0.2S228.6,19.8,228.4,19.7z"/> </g> <g>  <path style="fill:#030303;" d="M210.6,35.8c0.3-0.3,1.1-0.5,2-0.4L216,36c0.8,0.1,0.8,0.2,0,0.3l-4.3,0.1   C210.8,36.4,210.4,36.2,210.6,35.8z"/> </g> <g>  <path style="fill:#030303;" d="M245.3,35.8c0.3-0.4,1.2-0.7,2.1-0.5l3.1,0.6c0.8,0.2,0.8,0.3,0,0.4l-4.2,0.2   C245.4,36.6,245,36.3,245.3,35.8z"/> </g> <g>  <path style="fill:#030303;" d="M246.7,23.2c-0.1-0.5,0.4-0.8,1.2-0.7l2.7,0.4c0.8,0.1,0.8,0.3,0,0.5l-2.2,0.4   C247.6,23.9,246.8,23.6,246.7,23.2z"/> </g> <g style="opacity:0.5;">  <path style="fill:#030303;" d="M243.1,8.5c-0.2-0.2-0.4-1-0.5-1.8s0.1-0.8,0.3,0l0.2,0.7C243.4,8.2,243.4,8.7,243.1,8.5z"/> </g> <g>  <path style="fill:#030303;" d="M209.5,26.2l-1.8-0.7c-0.8-0.3-0.7-0.5,0.1-0.4l1.9,0.2"/> </g> <g style="opacity:0.5;">  <path style="fill:#030303;" d="M137,32.3c0.1-0.4,0.1-1,0-1.4s-0.9-0.7-1.8-0.7h-0.5c-0.8,0-1.7,0.4-2,0.8s0.2,1,1,1.2l1.6,0.4   C136.1,32.8,136.9,32.7,137,32.3z"/> </g> <g>  <path style="fill:#030303;" d="M135.8,31.2c-0.5-0.5-0.5-1,0.1-1c0.5,0,1.2,0.3,1.4,0.6c0.3,0.3,0.1,1.2-0.3,1.8   c-0.4,0.7-0.7,0.9-0.5,0.4C136.5,32.6,136.2,31.8,135.8,31.2z"/> </g> <g>  <path style="fill:#030303;" d="M88,7.5c0.1-0.4,0.8-0.6,1.6-0.4h0.1c0.8,0.2,0.8,0.5,0,0.7l-0.3,0.1C88.5,8.1,87.9,7.9,88,7.5z"/> </g> <g>  <path style="fill:#030303;" d="M53.8,13.2c-0.1,0.3-0.9,0.3-1.7,0.1h-0.2c-0.8-0.2-0.8-0.4,0-0.4h0.6C53.4,12.8,53.9,13,53.8,13.2   z"/> </g> <g>  <path style="fill:#030303;" d="M26.3,24.9c0.1-0.3-0.4-0.5-1.3-0.3l-0.9,0.2c-0.8,0.2-0.8,0.4,0,0.5l0.4,0.1   C25.4,25.4,26.2,25.2,26.3,24.9z"/> </g> <g>  <path style="fill:#29282A;" d="M28.4,36c-0.2-0.3-0.2-1.1,0-1.9l0.2-0.7c0.2-0.8,0.4-0.8,0.4,0.1L28.9,35   C28.8,35.8,28.6,36.3,28.4,36z"/> </g> <g>  <path style="fill:#29282A;" d="M54.8,39.5c-0.2-0.1-0.2-0.8,0-1.4c0.2-0.6,0.4-0.5,0.4,0.3S55,39.7,54.8,39.5z"/> </g> <g>  <path style="fill:#29282A;" d="M78.6,23.6c0-0.5,0.2-0.2,0.5,0.5l0.1,0.2c0.3,0.8,0.3,1.1,0,0.8C78.9,24.8,78.6,24.1,78.6,23.6z"   /> </g> <g>  <path style="fill:#29282A;" d="M211,36.3c0.3-0.2,0.3-1,0.1-1.8l-0.2-0.8c-0.2-0.8-0.4-0.8-0.4,0.1v1.4   C210.5,36,210.7,36.5,211,36.3z"/> </g> <g>  <path style="fill:#29282A;" d="M245.8,36c0.4-0.2,0.4-1,0.1-1.7l-1.3-2.8c-0.3-0.7-0.5-0.7-0.4,0.1l0.6,3.3   C245,35.7,245.4,36.2,245.8,36z"/> </g> <g>  <path style="fill:#29282A;" d="M247.3,23.1c-0.1-0.3-0.6,0.1-0.9,0.8l-1.3,2.7c-0.4,0.7-0.3,0.8,0.2,0.1l1.4-1.9   C247.2,24.2,247.4,23.4,247.3,23.1z"/> </g> <g>  <path style="fill:#030303;" d="M224.6,8.6l0.1-1.6c0-0.8,0.2-0.8,0.4,0l0.5,1.8"/> </g> <g>  <path style="fill:#5A5558;" d="M23.4,36.8c-0.7-0.2-0.6-0.3,0.1-0.3c0.7,0.1,1.8,0.2,2.4,0.3s0.5,0.2-0.1,0.3   C25.1,37.1,24,37,23.4,36.8z"/> </g> <g>  <path style="fill:#5A5558;" d="M56.9,33.1c-0.6-0.6-0.6-0.5-0.1,0.2l0.4,0.5c0.5,0.7,1.2,1.4,1.6,1.7c0.4,0.3,0.4,0-0.1-0.5   S57.4,33.6,56.9,33.1z"/> </g> <g>  <path style="fill:#5A5558;" d="M70.4,31.6c-0.2,0-0.1,0.5,0.2,1.1c0.3,0.6,0.4,0.6,0.3,0C70.8,32.1,70.6,31.6,70.4,31.6z"/> </g> <g>  <path style="fill:#5A5558;" d="M89.9,38.3c-0.6-0.1-0.4-0.2,0.4-0.4l0.5-0.1c0.8-0.1,1.2-0.1,0.8,0.2   C91.2,38.2,90.4,38.4,89.9,38.3z"/> </g> <g>  <path style="fill:#5A5558;" d="M103.4,32.7c-0.3-0.4-0.4-0.1-0.2,0.5c0.1,0.7,0.5,1.7,0.8,2.3s0.4,0.4,0.2-0.4l-0.1-0.3   C104.1,34,103.7,33,103.4,32.7z"/> </g> <g>  <path style="fill:#5A5558;" d="M148.3,33.8c-0.1-0.4-0.3-0.4-0.5,0.2s-0.3,1.5-0.3,2.2s0.2,0.6,0.5-0.2l0,0   C148.3,35.3,148.4,34.3,148.3,33.8z"/> </g> <g>  <path style="fill:#5A5558;" d="M133.4,30.9c-0.1-0.4-0.5-0.4-0.7,0.2c-0.3,0.5,0.1,1.2,0.8,1.6s1,0.3,0.7-0.2   C133.9,32.1,133.5,31.4,133.4,30.9z"/> </g> <g>  <path style="fill:#5A5558;" d="M158.5,38.5c-0.7-0.2-0.5-0.3,0.3-0.3s2,0.2,2.7,0.4s0.5,0.4-0.3,0.3   C160.3,38.9,159.1,38.7,158.5,38.5z"/> </g> <g>  <path style="fill:#5A5558;" d="M175.4,32.7c-0.1-0.3-0.3,0-0.5,0.5s-0.2,0.8,0.1,0.5S175.5,32.9,175.4,32.7z"/> </g> <g>  <path style="fill:#5A5558;" d="M191.7,32.1c-0.1-0.3-0.3,0-0.5,0.5c-0.2,0.6-0.2,0.8,0.1,0.5S191.8,32.3,191.7,32.1z"/> </g> <g>  <path style="fill:#5A5558;" d="M189.1,37c-0.8-0.1-0.7-0.3,0.1-0.4h0.3c0.8-0.1,1.8,0,2.2,0.3c0.4,0.2,0.3,0.4-0.3,0.4   C190.9,37.3,189.9,37.1,189.1,37z"/> </g> <g>  <path style="fill:#5A5558;" d="M213.1,36.9c-0.7,0.1-0.7-0.1,0-0.3s1.9-0.3,2.7-0.2l0.7,0.1c0.8,0.1,0.8,0.2,0,0.2h-0.7   C215,36.8,213.7,36.9,213.1,36.9z"/> </g> <g>  <path style="fill:#29282A;" d="M228.5,19.9c-0.3,0.1-0.9,0.8-1.2,1.5s-0.1,0.7,0.4,0.1l0.5-0.7C228.8,20.2,228.9,19.7,228.5,19.9z   "/> </g> <g>  <path style="fill:#030303;" d="M254.8,8.3c-0.3,0-0.6-0.7-0.7-1.5V6.5c-0.1-0.8,0.1-0.9,0.5-0.1l0.2,0.5   C255.1,7.7,255.1,8.3,254.8,8.3z"/> </g> <g>  <path style="fill:#030303;" d="M155,11.3c0-0.4,0.6-0.7,1.4-0.6h0.2c0.8,0,0.9,0.3,0.1,0.6l-0.3,0.1C155.7,11.8,155,11.7,155,11.3   z"/> </g> <g>  <path style="fill:#030303;" d="M117.9,12.7c-0.3-0.1-0.4,0.4-0.3,1.2v0.3c0.1,0.8,0.3,0.9,0.5,0.1   C118.2,13.6,118.1,12.8,117.9,12.7z"/> </g> <g>  <path style="fill:#030303;" d="M84.6,23c-0.1-0.3,0.5-0.5,1.3-0.5h2.6c0.8,0,0.8,0.1,0,0.3l-2.3,0.5C85.5,23.4,84.7,23.3,84.6,23z   "/> </g> <g>  <path style="fill:#030303;" d="M25.7,28.8c0-0.2-0.6-0.4-1.4-0.4h-0.4c-0.8,0-0.8,0.2,0,0.4l0.3,0.1C24.9,29,25.6,29,25.7,28.8z"   /> </g> <g>  <path style="fill:#E0DBD6;" d="M15.3,31.2c-0.8,0-1.4,0.1-1.2,0.3c0.1,0.1,0.9,0.3,1.8,0.3h5.2c0.8,0,1.6-0.1,1.8-0.3   s-0.4-0.3-1.2-0.3H15.3z"/> </g> <g>  <path style="fill:#E0DBD6;" d="M40.3,31.2c-0.8,0-1.4,0.1-1.2,0.3c0.1,0.1,0.9,0.3,1.8,0.3h5.2c0.8,0,1.6-0.1,1.8-0.3   c0.1-0.2-0.4-0.3-1.2-0.3H40.3z"/> </g> <g>  <path style="fill:#E0DBD6;" d="M54.4,31.1c-0.8,0-1.5,0.2-1.4,0.3c0,0.1,0.7,0.3,1.5,0.3s1.4-0.1,1.5-0.3c0-0.2-0.6-0.3-1.4-0.3   H54.4z"/> </g> <g>  <path style="fill:#E0DBD6;" d="M29.3,18.8c-0.8,0-1.5,0.2-1.4,0.3c0,0.1,0.7,0.3,1.5,0.3s1.4-0.1,1.5-0.3c0-0.2-0.6-0.3-1.4-0.3   H29.3z"/> </g> <g>  <path style="fill:#E0DBD6;" d="M39.7,18.8c-0.8,0-1.5,0.2-1.4,0.3c0,0.1,0.7,0.3,1.5,0.3s1.4-0.1,1.5-0.3s-0.6-0.3-1.4-0.3H39.7z"   /> </g> <g>  <path style="fill:#E0DBD6;" d="M18.9,20.5c-0.8,0-1.4,0.2-1.3,0.3c0,0.1,0.6,0.3,1.3,0.3s1.3-0.1,1.3-0.3   C20.2,20.6,19.6,20.5,18.9,20.5z"/> </g> <g>  <path style="fill:#E0DBD6;" d="M31.4,24.7c-0.8,0-1.4,0.1-1.3,0.3c0.1,0.1,0.8,0.3,1.7,0.3H34c0.8,0,1.6-0.1,1.7-0.3   c0.1-0.2-0.5-0.3-1.3-0.3H31.4z"/> </g> <g>  <path style="fill:#E0DBD6;" d="M25.7,6.7c-0.8,0-1.4,0.1-1.3,0.3s0.8,0.3,1.7,0.3h2.2c0.8,0,1.6-0.1,1.7-0.3   c0.1-0.2-0.5-0.3-1.3-0.3H25.7z"/> </g> <g>  <path style="fill:#E0DBD6;" d="M68.8,31.1c-0.8,0-1.5,0.2-1.4,0.3s0.7,0.3,1.5,0.3s1.4-0.1,1.5-0.3c0-0.2-0.6-0.3-1.4-0.3H68.8z"   /> </g> <g>  <path style="fill:#E0DBD6;" d="M93.4,31.1c-0.8,0-1.4,0.2-1.3,0.3c0,0.1,0.6,0.3,1.3,0.3s1.3-0.1,1.3-0.3   C94.8,31.2,94.2,31.1,93.4,31.1z"/> </g> <g>  <path style="fill:#E0DBD6;" d="M73.4,31.1c-0.8,0-1.4,0.1-1.4,0.3c0.1,0.1,0.8,0.3,1.6,0.3h1.6c0.8,0,1.6-0.1,1.6-0.3   c0.1-0.2-0.5-0.3-1.4-0.3H73.4z"/> </g> <g>  <path style="fill:#E0DBD6;" d="M86.5,31.1c-0.8,0-1.4,0.1-1.3,0.3c0.1,0.1,0.8,0.3,1.7,0.3H89c0.8,0,1.6-0.1,1.7-0.3   c0.1-0.2-0.5-0.3-1.3-0.3H86.5z"/> </g> <g>  <path style="fill:#E0DBD6;" d="M100.9,31.1c-0.8,0-1.4,0.2-1.4,0.3s0.8,0.3,1.6,0.3h0.7c0.8,0,1.6-0.1,1.6-0.3   c0.1-0.2-0.6-0.3-1.4-0.3H100.9z"/> </g> <g>  <path style="fill:#E0DBD6;" d="M129.5,31.1c-0.8,0-1.4,0.2-1.4,0.3c0.1,0.1,0.8,0.3,1.6,0.3h0.7c0.8,0,1.6-0.1,1.6-0.3   c0.1-0.2-0.6-0.3-1.4-0.3H129.5z"/> </g> <g>  <path style="fill:#E0DBD6;" d="M149.9,31.1c-0.8,0-1.4,0.2-1.4,0.3c0.1,0.1,0.8,0.3,1.6,0.3h0.3c0.8,0,1.5-0.1,1.6-0.3   c0.1-0.2-0.6-0.3-1.4-0.3H149.9z"/> </g> <g>  <path style="fill:#E0DBD6;" d="M160,31.1c-0.8,0-1.4,0.1-1.3,0.3c0.1,0.1,0.9,0.3,1.7,0.3h4.1c0.8,0,1.6-0.1,1.7-0.3   c0.1-0.2-0.4-0.3-1.3-0.3H160z"/> </g> <g>  <path style="fill:#E0DBD6;" d="M172.5,31.1c-0.8,0-1.5,0.2-1.4,0.3c0.1,0.1,0.8,0.3,1.6,0.3s1.5-0.1,1.6-0.3   c0.1-0.2-0.6-0.3-1.4-0.3H172.5z"/> </g> <g>  <path style="fill:#E0DBD6;" d="M177,31.1c-0.8,0-1.4,0.1-1.3,0.3s0.8,0.3,1.6,0.3h1.6c0.8,0,1.6-0.1,1.6-0.3   c0.1-0.2-0.5-0.3-1.3-0.3H177z"/> </g> <g>  <path style="fill:#E0DBD6;" d="M187,31.1c-0.8,0-1.4,0.2-1.4,0.3s0.8,0.3,1.6,0.3h0.9c0.8,0,1.6-0.1,1.6-0.3   c0.1-0.2-0.5-0.3-1.4-0.3H187z"/> </g> <g>  <path style="fill:#E0DBD6;" d="M193,31.1c-0.8,0-1.4,0.2-1.4,0.3c0.1,0.1,0.8,0.3,1.6,0.3h0.2c0.8,0,1.5-0.1,1.6-0.3   c0.1-0.2-0.6-0.3-1.4-0.3H193z"/> </g> <g>  <path style="fill:#E0DBD6;" d="M201.4,31.1c-0.8,0-1.4,0.1-1.2,0.3s1,0.3,1.8,0.3h5.8c0.8,0,1.6-0.1,1.8-0.3   c0.2-0.2-0.4-0.3-1.2-0.3H201.4z"/> </g> <g>  <path style="fill:#E0DBD6;" d="M215.6,31.1c-0.8,0-1.4,0.1-1.2,0.3c0.2,0.1,1,0.3,1.8,0.3h5.8c0.8,0,1.6-0.1,1.8-0.3   c0.2-0.2-0.4-0.3-1.2-0.3H215.6z"/> </g> <g>  <path style="fill:#E0DBD6;" d="M251.7,31.1c-0.8,0-1.4,0.1-1.2,0.3c0.2,0.1,1,0.3,1.8,0.3h5.8c0.8,0,1.6-0.1,1.8-0.3   c0.2-0.2-0.4-0.3-1.2-0.3H251.7z"/> </g> <g>  <path style="fill:#E0DBD6;" d="M238.4,7.1c-0.8,0-1.4,0.1-1.3,0.3c0.1,0.1,0.8,0.3,1.7,0.3h2c0.8,0,1.6-0.1,1.7-0.3   c0.1-0.2-0.5-0.3-1.3-0.3H238.4z"/> </g> <g>  <path style="fill:#E0DBD6;" d="M227.2,7.1c-0.8,0-1.4,0.1-1.3,0.3s0.9,0.3,1.7,0.3h2.7c0.8,0,1.6-0.1,1.7-0.3   c0.1-0.2-0.5-0.3-1.3-0.3H227.2z"/> </g> <g>  <path style="fill:#E0DBD6;" d="M221.5,7.1c-0.8,0-1.4,0.2-1.4,0.3c0.1,0.1,0.8,0.3,1.6,0.3h1c0.8,0,1.6-0.1,1.6-0.3   c0.1-0.2-0.5-0.3-1.4-0.3H221.5z"/> </g> <g>  <path style="fill:#E0DBD6;" d="M223.4,18.8c-0.8,0-1.4,0.1-1.3,0.3c0.1,0.1,0.8,0.3,1.7,0.3h2.1c0.8,0,1.6-0.1,1.7-0.3   c0.1-0.2-0.5-0.3-1.3-0.3H223.4z"/> </g> <g>  <path style="fill:#E0DBD6;" d="M188.6,6.3c-0.8,0-1.4,0.2-1.4,0.3s0.8,0.3,1.6,0.3h1c0.8,0,1.6-0.1,1.6-0.3   c0.1-0.2-0.5-0.3-1.4-0.3H188.6z"/> </g> <g>  <path style="fill:#E0DBD6;" d="M196.7,6.3c-0.8,0-1.4,0.2-1.4,0.3c0.1,0.1,0.8,0.3,1.6,0.3h1c0.8,0,1.6-0.1,1.6-0.3   c0.1-0.2-0.5-0.3-1.4-0.3H196.7z"/> </g> <g>  <path style="fill:#E0DBD6;" d="M191.4,11.5c-0.6,0-1.1,0.2-1,0.3c0,0.1,0.5,0.3,1,0.3s1-0.1,1-0.3C192.4,11.5,192,11.4,191.4,11.5   z"/> </g> <g>  <path style="fill:#E0DBD6;" d="M194.3,9.8c-0.8,0-1.3,0.2-1.3,0.3s0.6,0.3,1.3,0.3s1.3-0.1,1.3-0.3C195.6,9.9,195,9.8,194.3,9.8z"   /> </g> <g>  <path style="fill:#E0DBD6;" d="M158.3,10.1c-0.8,0-1.3,0.2-1.3,0.3s0.6,0.3,1.3,0.3s1.3-0.1,1.3-0.3   C159.6,10.2,159.1,10.1,158.3,10.1z"/> </g> <g>  <path style="fill:#E0DBD6;" d="M167.5,18.5c-0.8,0-1.5,0.2-1.4,0.3s0.8,0.3,1.6,0.3s1.5-0.1,1.6-0.3c0.1-0.2-0.6-0.3-1.4-0.3   H167.5z"/> </g> <g>  <path style="fill:#E0DBD6;" d="M161.1,21.5c-0.8,0-1.4,0.1-1.3,0.3c0.1,0.1,0.8,0.3,1.6,0.3h1.6c0.8,0,1.6-0.1,1.6-0.3   c0.1-0.2-0.5-0.3-1.3-0.3H161.1z"/> </g> <g>  <path style="fill:#E0DBD6;" d="M250.8,22.2c-0.8,0-1.4,0.1-1.3,0.3c0.1,0.1,0.8,0.3,1.6,0.3h1.6c0.8,0,1.6-0.1,1.6-0.3   c0.1-0.2-0.5-0.3-1.3-0.3H250.8z"/> </g> <g>  <path style="fill:#E0DBD6;" d="M101.6,24.5c-0.8,0-1.4,0.2-1.4,0.3s0.8,0.3,1.6,0.3h0.4c0.8,0,1.5-0.1,1.6-0.3   c0.1-0.2-0.6-0.3-1.4-0.3H101.6z"/> </g> <g>  <path style="fill:#E0DBD6;" d="M89,22c-0.8,0-1.4,0.2-1.4,0.3c0.1,0.1,0.8,0.3,1.6,0.3h0.4c0.8,0,1.5-0.1,1.6-0.3S90.7,22,89.8,22   H89z"/> </g> <g>  <path style="fill:#E0DBD6;" d="M70.9,21.8c-0.8,0-1.4,0.2-1.4,0.3c0.1,0.1,0.8,0.3,1.6,0.3h0.4c0.8,0,1.5-0.1,1.6-0.3   c0.1-0.2-0.6-0.3-1.4-0.3H70.9z"/> </g> <g>  <path style="fill:#E0DBD6;" d="M43.6,12.1c-0.8,0-1.4,0.1-1.3,0.3s0.8,0.3,1.6,0.3h1.7c0.8,0,1.6-0.1,1.6-0.3   c0.1-0.2-0.5-0.3-1.3-0.3H43.6z"/> </g> <g>  <path style="fill:#E0DBD6;" d="M94.9,7.5c-0.8-0.1-1.5,0-1.4,0.1S94.2,8,95,8.1l0.4,0.1C96.2,8.3,97,8.3,97,8.1   c0.1-0.2-0.5-0.4-1.3-0.5L94.9,7.5z"/> </g> <g>  <path style="fill:#E0DBD6;" d="M172.6,23.5c-0.8,0-1.4,0.2-1.4,0.3c0.1,0.1,0.8,0.3,1.6,0.3h0.4c0.8,0,1.5-0.1,1.6-0.3   c0.1-0.2-0.6-0.3-1.4-0.3H172.6z"/> </g> <g>  <path style="fill:#E0DBD6;" d="M195.4,21.3c-0.8,0-1.4,0.2-1.4,0.3c0.1,0.1,0.8,0.3,1.6,0.3h0.4c0.8,0,1.5-0.1,1.6-0.3   c0.1-0.2-0.6-0.3-1.4-0.3H195.4z"/> </g> <g>  <path style="fill:#E0DBD6;" d="M140.6,6.9c-0.8,0-1.3,0.1-1.2,0.3c0.2,0.1,1,0.3,1.8,0.3h7.7c0.8,0,1.7-0.1,1.8-0.3   s-0.3-0.3-1.2-0.3H140.6z"/> </g> <g>  <path style="fill:#E0DBD6;" d="M113.4,7c-0.8,0-1.3,0.1-1.1,0.3c0.2,0.1,1,0.3,1.9,0.3h8.1c0.8,0,1.7-0.1,1.9-0.3S123.9,7,123.1,7   H113.4z"/> </g> <g>  <path style="fill:#E0DBD6;" d="M112,18.5c-0.8,0-1.4,0.1-1.3,0.3c0.1,0.1,0.9,0.3,1.7,0.3h3c0.8,0,1.6-0.1,1.7-0.3   s-0.5-0.3-1.3-0.3H112z"/> </g> <g>  <path style="fill:#E0DBD6;" d="M119.3,18.5c-0.8,0-1.4,0.1-1.3,0.3c0.1,0.1,0.9,0.3,1.7,0.3h2.7c0.8,0,1.6-0.1,1.7-0.3   c0.1-0.2-0.5-0.3-1.3-0.3H119.3z"/> </g> <g>  <path style="fill:#E0DBD6;" d="M134.9,29.6c-0.8,0-1.5,0.2-1.4,0.3s0.7,0.3,1.5,0.3s1.4-0.1,1.5-0.3   C136.5,29.7,135.8,29.6,134.9,29.6L134.9,29.6z"/> </g> <g>  <path style="fill:#E0DBD6;" d="M132.8,11.1c-0.8-0.1-1.4,0-1.4,0.1c0.1,0.2,0.8,0.4,1.6,0.5l1.1,0.1c0.8,0.1,1.6,0.1,1.7-0.1   s-0.5-0.4-1.3-0.5L132.8,11.1z"/> </g> <g>  <path style="fill:#E0DBD6;" d="M200.9,23.6c-0.8-0.1-1.4,0-1.4,0.1c0.1,0.2,0.8,0.4,1.6,0.5l1.1,0.1c0.8,0.1,1.6,0.1,1.7-0.1   c0.1-0.2-0.5-0.4-1.3-0.5L200.9,23.6z"/> </g> <g>  <path style="fill:#E0DBD6;" d="M198.3,11.5c-0.6,0-1,0.2-1,0.3s0.5,0.3,1,0.3s0.9-0.1,1-0.3C199.3,11.5,198.8,11.4,198.3,11.5z"/> </g> <g>  <path style="fill:#E0DBD6;" d="M230.6,18.8c-0.8,0-1.4,0.1-1.3,0.3c0.1,0.1,0.9,0.3,1.7,0.3h2.7c0.8,0,1.6-0.1,1.7-0.3   s-0.5-0.3-1.3-0.3H230.6z"/> </g> <g>  <path style="fill:#E0DBD6;" d="M256.7,7.1c-0.8,0-1.4,0.2-1.4,0.3c0.1,0.1,0.8,0.3,1.6,0.3h1.1c0.8,0,1.6-0.1,1.6-0.3   c0.1-0.2-0.5-0.3-1.4-0.3H256.7z"/> </g> <g>  <path style="fill:#E0DBD6;" d="M139.5,31.1c-0.8,0-1.4,0.1-1.2,0.3c0.1,0.1,0.9,0.3,1.7,0.3h4.8c0.8,0,1.6-0.1,1.7-0.3   c0.1-0.2-0.4-0.3-1.2-0.3H139.5z"/> </g> <g>  <path style="fill:#E0DBD6;" d="M106.2,31.1c-0.8,0-1.3,0.1-1.2,0.3s1,0.3,1.8,0.3h7.3c0.8,0,1.6-0.1,1.8-0.3   c0.2-0.2-0.3-0.3-1.2-0.3H106.2z"/> </g> <g>  <path style="fill:#E0DBD6;" d="M118.6,31.1c-0.8,0-1.4,0.1-1.3,0.3c0.1,0.1,0.9,0.3,1.7,0.3h2.6c0.8,0,1.6-0.1,1.7-0.3   c0.1-0.2-0.5-0.3-1.3-0.3H118.6z"/> </g> <g>  <path style="fill:#E0DBD6;" d="M59.8,31.2c-0.8,0-1.4,0.2-1.4,0.3c0.1,0.1,0.8,0.3,1.6,0.3h1c0.8,0,1.6-0.1,1.6-0.3   c0.1-0.2-0.5-0.3-1.4-0.3H59.8z"/> </g></g></svg>